<svg version="1.1" xmlns="http://www.w3.org/2000/svg" xmlns:xlink="http://www.w3.org/1999/xlink" width="50px" height="50px" viewBox="0,0,256,256"><g transform="translate(-25.6,-25.6) scale(1.2,1.2)"><g fill="#ffffff" fill-rule="nonzero" stroke="none" stroke-width="1" stroke-linecap="butt" stroke-linejoin="miter" stroke-miterlimit="10" stroke-dasharray="" stroke-dashoffset="0" font-family="none" font-weight="none" font-size="none" text-anchor="none" style="mix-blend-mode: normal"><g transform="scale(5.12,5.12)"><path d="M10.45508,4c-0.34043,-0.00025 -0.6576,0.17269 -0.8418,0.45898l-5.45508,8.5c-0.10352,0.16144 -0.15843,0.34924 -0.1582,0.54102v0.33203c-0.01785,0.10799 -0.01785,0.21818 0,0.32617v30.8418c0.00006,0.55226 0.44774,0.99994 1,1h40c0.55226,-0.00006 0.99994,-0.44774 1,-1v-30.83203c0.01785,-0.10799 0.01785,-0.21818 0,-0.32617v-0.3418c0.00023,-0.19178 -0.05469,-0.37958 -0.1582,-0.54102l-5.45508,-8.5c-0.18419,-0.28629 -0.50137,-0.45923 -0.8418,-0.45898zM11.00195,6h27.99609l4.49219,7h-13.49023c-0.55226,0.00006 -0.99994,0.44774 -1,1c0,2.22038 -1.77962,4 -4,4c-2.22038,0 -4,-1.77962 -4,-4c-0.00006,-0.55226 -0.44774,-0.99994 -1,-1h-13.49023zM6,15h13.20313c0.4954,2.81027 2.84951,5 5.79688,5c2.94737,0 5.30148,-2.18973 5.79688,-5h13.20313v29h-38zM24.98438,22.98633c-0.55152,0.00862 -0.99193,0.46214 -0.98437,1.01367v12.58594l-4.29297,-4.29297c-0.18827,-0.19353 -0.4468,-0.30272 -0.7168,-0.30273c-0.40692,0.00011 -0.77321,0.24676 -0.92633,0.62377c-0.15312,0.37701 -0.06255,0.80921 0.22907,1.09303l5.85742,5.85742c0.18911,0.2867 0.51209,0.4563 0.85547,0.44922c0.0013,0 0.0026,0 0.00391,0c0.0013,0 0.0026,0 0.00391,0c0.3386,0.00087 0.65465,-0.16965 0.83984,-0.45312l5.85352,-5.85352c0.29576,-0.28749 0.38469,-0.72707 0.22393,-1.10691c-0.16075,-0.37985 -0.53821,-0.62204 -0.9505,-0.60988c-0.2598,0.00774 -0.50638,0.11632 -0.6875,0.30273l-4.29297,4.29297v-12.58594c0.0037,-0.2703 -0.10218,-0.53059 -0.29351,-0.72155c-0.19133,-0.19097 -0.45182,-0.29634 -0.72212,-0.29212z"></path></g></g></g></svg>