<svg version="1.1" xmlns="http://www.w3.org/2000/svg" xmlns:xlink="http://www.w3.org/1999/xlink" width="50px" height="50px" viewBox="0,0,256,256"><g transform="translate(-25.6,-25.6) scale(1.2,1.2)"><g fill="#ffffff" fill-rule="nonzero" stroke="none" stroke-width="1" stroke-linecap="butt" stroke-linejoin="miter" stroke-miterlimit="10" stroke-dasharray="" stroke-dashoffset="0" font-family="none" font-weight="none" font-size="none" text-anchor="none" style="mix-blend-mode: normal"><g transform="scale(5.12,5.12)"><path d="M45.842,12.96l-5.455,-8.5c-0.184,-0.287 -0.501,-0.46 -0.842,-0.46h-29.09c-0.34,0 -0.658,0.173 -0.842,0.46l-5.455,8.5c-0.103,0.161 -0.158,0.349 -0.158,0.54v31.5c0,0.552 0.448,1 1,1h40c0.552,0 1,-0.448 1,-1v-31.5c0,-0.191 -0.055,-0.379 -0.158,-0.54zM31.707,33.707l-6,6c-0.195,0.195 -0.451,0.293 -0.707,0.293c-0.256,0 -0.512,-0.098 -0.707,-0.293l-6,-6c-0.391,-0.391 -0.391,-1.023 0,-1.414c0.391,-0.391 1.023,-0.391 1.414,0l4.293,4.293v-12.586c0,-0.552 0.448,-1 1,-1c0.552,0 1,0.448 1,1v12.586l4.293,-4.293c0.391,-0.391 1.023,-0.391 1.414,0c0.391,0.391 0.391,1.023 0,1.414zM30,13c-0.552,0 -1,0.448 -1,1c0,2.206 -1.794,4 -4,4c-2.206,0 -4,-1.794 -4,-4c0,-0.552 -0.448,-1 -1,-1h-13.491l4.492,-7h27.998l4.492,7z"></path></g></g></g></svg>