<svg xmlns="http://www.w3.org/2000/svg" version="1.1" xmlns:xlink="http://www.w3.org/1999/xlink" xmlns:svgjs="http://svgjs.com/svgjs" width="512" height="512" x="0" y="0" viewBox="0 0 32 32" style="enable-background:new 0 0 512 512" xml:space="preserve" class=""><g transform="matrix(1.1700000000000006,0,0,1.1700000000000006,-2.7200000000000095,-2.7200000000000095)"><path fill-rule="evenodd" d="M15.942 2.5h-.054c-.059 0-.113 0-.167.004a1.5 1.5 0 0 0 .058 3c.046-.004.088-.004.133-.004H16A10.5 10.5 0 1 1 5.5 16v-.133a1.5 1.5 0 1 0-3-.034V16A13.5 13.5 0 1 0 16 2.5zM14.5 11v5a1.499 1.499 0 0 0 1.5 1.5h5a1.5 1.5 0 1 0 0-3h-3.5V11a1.5 1.5 0 1 0-3 0zm-8.225 1.033.05-.12a1.5 1.5 0 1 0-2.763-1.171l-.062.154a1.5 1.5 0 1 0 2.775 1.137zM8.5 8.654l.092-.091a1.5 1.5 0 0 0-2.117-2.125l-.117.116a1.5 1.5 0 0 0 2.142 2.1zm3.333-2.291c.038-.021.08-.038.117-.055a1.5 1.5 0 1 0-1.158-2.766c-.05.02-.105.046-.155.066a1.501 1.501 0 0 0 1.196 2.755z" fill="#ffffff" data-original="#000000" class=""></path></g></svg>