<svg version="1.1" xmlns="http://www.w3.org/2000/svg" xmlns:xlink="http://www.w3.org/1999/xlink" width="72px" height="72px" viewBox="0,0,255.99609,255.99609"><g fill="#1db954" fill-rule="nonzero" stroke="none" stroke-width="1" stroke-linecap="butt" stroke-linejoin="miter" stroke-miterlimit="10" stroke-dasharray="" stroke-dashoffset="0" font-family="none" font-weight="none" font-size="none" text-anchor="none" style="mix-blend-mode: normal"><g transform="scale(3.55556,3.55556)"><path d="M57.603,40.147l1.425,1.606c1.313,1.483 1.53,3.63 0.541,5.343l-2.175,3.766c-0.305,0.53 -1.919,2.817 -4.895,2.203l-2.122,-0.434c-2.085,1.805 -4.51,3.225 -7.167,4.149l-0.679,2.039c-0.625,1.878 -2.376,3.14 -4.355,3.14h-4.35c-1.979,0 -3.73,-1.262 -4.355,-3.14l-0.681,-2.039c-2.657,-0.924 -5.082,-2.344 -7.167,-4.149l-2.12,0.434c-2.991,0.608 -4.593,-1.678 -4.896,-2.204l-2.175,-3.766c-0.989,-1.712 -0.772,-3.858 0.539,-5.34l1.427,-1.608c-0.258,-1.344 -0.398,-2.729 -0.398,-4.147c0,-1.418 0.14,-2.803 0.397,-4.147l-1.425,-1.606c-1.313,-1.483 -1.53,-3.63 -0.541,-5.343l2.175,-3.766c0.987,-1.713 2.953,-2.603 4.895,-2.203l2.122,0.434c2.085,-1.805 4.51,-3.225 7.167,-4.149l0.679,-2.039c0.625,-1.878 2.376,-3.14 4.355,-3.14h4.35c1.979,0 3.73,1.262 4.355,3.14l0.679,2.039c2.657,0.924 5.082,2.344 7.167,4.149l2.12,-0.434c1.938,-0.394 3.908,0.491 4.896,2.204l2.175,3.766c0.989,1.712 0.772,3.858 -0.539,5.34l-1.427,1.608c0.26,1.344 0.4,2.729 0.4,4.147c0,1.418 -0.14,2.803 -0.397,4.147zM23.052,40.319c0,0.852 0.555,1.367 1.461,1.367c0.766,0 1.195,-0.391 1.469,-1.344l0.383,-1.203h3.859l0.383,1.25c0.25,0.922 0.68,1.297 1.508,1.297c0.836,0 1.438,-0.57 1.438,-1.375c0,-0.297 -0.055,-0.562 -0.188,-0.93l-2.805,-7.641c-0.43,-1.172 -1.117,-1.672 -2.297,-1.672c-1.117,0 -1.812,0.523 -2.227,1.672l-2.781,7.641c-0.125,0.345 -0.203,0.696 -0.203,0.938zM29.599,36.976h-2.664l1.281,-4.344h0.062zM34.927,40.194c0,0.953 0.531,1.492 1.438,1.492c0.907,0 1.43,-0.539 1.43,-1.492v-1.984h1.844c2.508,0 4.234,-1.57 4.234,-3.977c0,-2.422 -1.641,-3.992 -4.062,-3.992h-3.445c-0.906,0 -1.438,0.547 -1.438,1.5v8.453zM39.036,36.054h-1.242v-3.617h1.258c1.203,0 1.922,0.633 1.922,1.805c0,1.179 -0.719,1.812 -1.938,1.812zM45.146,40.194c0,0.953 0.531,1.492 1.438,1.492c0.907,0 1.43,-0.539 1.43,-1.492v-8.633c0,-0.953 -0.523,-1.492 -1.43,-1.492c-0.907,0 -1.438,0.539 -1.438,1.492z"></path></g></g></svg>