<svg width="41" height="40" viewBox="0 0 41 40" fill="none" xmlns="http://www.w3.org/2000/svg">
<path d="M24.2114 17.5H30.4012" stroke="white" stroke-width="2" stroke-linecap="round" stroke-linejoin="round"/>
<path d="M24.2114 22.5H30.4012" stroke="white" stroke-width="2" stroke-linecap="round" stroke-linejoin="round"/>
<path d="M14.9424 22.5C16.9935 22.5 18.6562 20.8211 18.6562 18.75C18.6562 16.6789 16.9935 15 14.9424 15C12.8913 15 11.2285 16.6789 11.2285 18.75C11.2285 20.8211 12.8913 22.5 14.9424 22.5Z" stroke="white" stroke-width="2" stroke-linecap="round" stroke-linejoin="round"/>
<path d="M10.1465 26.2499C10.4212 25.1766 11.0414 24.2259 11.9094 23.5471C12.7774 22.8684 13.8442 22.5 14.9421 22.5C16.04 22.5 17.1068 22.8682 17.9749 23.5469C18.8429 24.2256 19.4631 25.1763 19.7379 26.2496" stroke="white" stroke-width="2" stroke-linecap="round" stroke-linejoin="round"/>
<path d="M34.1149 7.5H6.88004C6.19634 7.5 5.64209 8.05964 5.64209 8.75V31.25C5.64209 31.9404 6.19634 32.5 6.88004 32.5H34.1149C34.7986 32.5 35.3529 31.9404 35.3529 31.25V8.75C35.3529 8.05964 34.7986 7.5 34.1149 7.5Z" stroke="white" stroke-width="2" stroke-linecap="round" stroke-linejoin="round"/>
</svg>
