<svg version="1.1" xmlns="http://www.w3.org/2000/svg" xmlns:xlink="http://www.w3.org/1999/xlink" width="72px" height="72px" viewBox="0,0,256,256"><g fill="#1db954" fill-rule="nonzero" stroke="none" stroke-width="1" stroke-linecap="butt" stroke-linejoin="miter" stroke-miterlimit="10" stroke-dasharray="" stroke-dashoffset="0" font-family="none" font-weight="none" font-size="none" text-anchor="none" style="mix-blend-mode: normal"><g transform="scale(3.55556,3.55556)"><path d="M63.06,34c0,12.13 -12.14,22 -27.06,22c-0.27,0 -0.55,0 -0.83,-0.01c-7.24,5.12 -13.05,5.91 -13.72,5.98c-0.15,0.02 -0.3,0.03 -0.45,0.03c-1.37,0 -2.66,-0.71 -3.4,-1.89c-0.81,-1.31 -0.8,-2.98 0.04,-4.28c0.01,-0.02 1.05,-1.65 2.38,-4.05c-6.93,-4.09 -11.08,-10.62 -11.08,-17.78c0,-12.13 12.14,-22 27.06,-22c14.92,0 27.06,9.87 27.06,22zM40.243,34c2.186,-2.186 4,-4 4.243,-4.243c1.171,-1.171 1.172,-3.071 0,-4.243c-1.172,-1.172 -3.071,-1.172 -4.243,0c-0.243,0.244 -2.057,2.057 -4.243,4.243c-2.186,-2.186 -4,-4 -4.243,-4.243c-1.171,-1.172 -3.071,-1.172 -4.243,0c-1.172,1.172 -1.171,3.071 0,4.243c0.244,0.243 2.057,2.057 4.243,4.243c-2.186,2.186 -4,4 -4.243,4.243c-1.171,1.172 -1.172,3.071 0,4.243c1.172,1.172 3.071,1.171 4.243,0c0.243,-0.244 2.057,-2.057 4.243,-4.243c2.186,2.186 4,4 4.243,4.243c1.171,1.171 3.071,1.172 4.243,0c1.172,-1.172 1.171,-3.071 0,-4.243c-0.244,-0.243 -2.057,-2.057 -4.243,-4.243z"></path></g></g></svg>