<svg width="14" height="11" viewBox="0 0 14 11" fill="none" xmlns="http://www.w3.org/2000/svg">
<path d="M13 2.5V9.55556C13 9.67343 12.9532 9.78648 12.8698 9.86983C12.7865 9.95317 12.6734 10 12.5556 10H1.5C1.36739 10 1.24021 9.94732 1.14645 9.85355C1.05268 9.75979 1 9.63261 1 9.5V1C1 0.867392 1.05268 0.740215 1.14645 0.646447C1.24021 0.552679 1.36739 0.5 1.5 0.5H4.83333C4.94152 0.5 5.04679 0.535089 5.13333 0.6L6.86667 1.9C6.95321 1.96491 7.05848 2 7.16667 2H12.5C12.6326 2 12.7598 2.05268 12.8536 2.14645C12.9473 2.24021 13 2.36739 13 2.5Z" stroke="#1DB954" stroke-linecap="round" stroke-linejoin="round"/>
</svg>
